<svg xmlns="http://www.w3.org/2000/svg" width="512" height="512" viewBox="0 0 512 512" version="1.1"><path d="M 178.379 35.381 C 170.596 38.907, 166.994 49.147, 170.867 56.740 C 173.992 62.866, 178.296 65.500, 185.177 65.500 C 194.724 65.500, 200.500 59.658, 200.500 50 C 200.500 43.724, 198.859 40.477, 193.763 36.672 C 190.426 34.181, 182.498 33.515, 178.379 35.381 M 74.272 121 C 74.272 123.475, 74.467 124.487, 74.706 123.250 C 74.944 122.013, 74.944 119.987, 74.706 118.750 C 74.467 117.513, 74.272 118.525, 74.272 121 M 98 188.313 C 98 188.485, 99.463 189.948, 101.250 191.563 L 104.500 194.500 101.563 191.250 C 98.825 188.221, 98 187.540, 98 188.313 M 35.966 202.250 C 21.186 209.710, 26.457 232, 43 232 C 48.217 232, 52.861 229.463, 56.408 224.677 C 59.324 220.742, 59.342 211.301, 56.441 207.323 C 54.022 204.005, 46.672 200, 43 200 C 41.583 200, 38.418 201.012, 35.966 202.250 M 495.987 233.588 C 495.328 235.061, 412.889 251.206, 406.153 251.182 C 400.041 251.160, 396.210 249.847, 390.457 245.801 L 386.414 242.959 378.457 244.598 C 374.081 245.499, 370.213 246.691, 369.862 247.246 C 369.511 247.802, 368.922 250.561, 368.554 253.378 C 368.186 256.195, 366.959 261.561, 365.829 265.303 C 364.698 269.045, 363.937 272.267, 364.136 272.463 C 365.014 273.325, 489.357 247.996, 491.662 246.485 C 494.657 244.523, 497.237 238.822, 496.794 235.147 C 496.618 233.691, 496.255 232.990, 495.987 233.588 M 230.437 336.250 L 227.500 339.500 230.750 336.563 C 233.779 333.825, 234.460 333, 233.687 333 C 233.515 333, 232.052 334.462, 230.437 336.250 M 126 482.500 L 126 487 256 487 L 386 487 385.825 482.250 L 385.651 477.500 385.268 481.750 L 384.885 486 264.443 486 C 156.475 486, 144 485.840, 144 484.455 C 144 483.605, 145.105 481.805, 146.455 480.455 L 148.909 478 137.455 478 L 126 478 126 482.500" stroke="none" fill="#d63030" fill-rule="evenodd"/><path d="M 466.500 227.517 C 457.700 229.380, 449.443 230.926, 448.151 230.952 C 446.788 230.980, 444.630 229.744, 443.008 228.008 L 440.213 225.017 433.883 226.298 C 427.981 227.493, 427.488 227.804, 426.603 230.888 C 425.344 235.278, 422.865 236.277, 404.085 239.967 C 395.607 241.633, 388.494 243.173, 388.278 243.389 C 388.062 243.605, 389.293 244.785, 391.015 246.011 C 394.752 248.671, 402.040 251, 406.632 251 C 410.180 251, 494.895 234.439, 495.757 233.576 C 496.546 232.788, 493.251 228.211, 490.684 226.528 C 486.669 223.898, 482.860 224.054, 466.500 227.517 M 149.028 479.113 C 146.206 480.239, 145.037 481.736, 145.015 484.250 C 145.001 485.907, 151.375 486, 265 486 L 385 486 385 482 L 385 478 268.250 478.063 C 193.978 478.104, 150.601 478.486, 149.028 479.113" stroke="none" fill="#f44545" fill-rule="evenodd"/><path d="M 178.379 35.381 C 170.596 38.907, 166.994 49.147, 170.867 56.740 C 173.992 62.866, 178.296 65.500, 185.177 65.500 C 194.724 65.500, 200.500 59.658, 200.500 50 C 200.500 43.724, 198.859 40.477, 193.763 36.672 C 190.426 34.181, 182.498 33.515, 178.379 35.381 M 74.272 121 C 74.272 123.475, 74.467 124.487, 74.706 123.250 C 74.944 122.013, 74.944 119.987, 74.706 118.750 C 74.467 117.513, 74.272 118.525, 74.272 121 M 98 188.313 C 98 188.485, 99.463 189.948, 101.250 191.563 L 104.500 194.500 101.563 191.250 C 98.825 188.221, 98 187.540, 98 188.313 M 35.966 202.250 C 21.186 209.710, 26.457 232, 43 232 C 48.217 232, 52.861 229.463, 56.408 224.677 C 59.324 220.742, 59.342 211.301, 56.441 207.323 C 54.022 204.005, 46.672 200, 43 200 C 41.583 200, 38.418 201.012, 35.966 202.250 M 495.987 233.588 C 495.328 235.061, 412.889 251.206, 406.153 251.182 C 400.041 251.160, 396.210 249.847, 390.457 245.801 L 386.414 242.959 378.457 244.598 C 374.081 245.499, 370.213 246.691, 369.862 247.246 C 369.511 247.802, 368.922 250.561, 368.554 253.378 C 368.186 256.195, 366.959 261.561, 365.829 265.303 C 364.698 269.045, 363.937 272.267, 364.136 272.463 C 365.014 273.325, 489.357 247.996, 491.662 246.485 C 494.657 244.523, 497.237 238.822, 496.794 235.147 C 496.618 233.691, 496.255 232.990, 495.987 233.588 M 230.437 336.250 L 227.500 339.500 230.750 336.563 C 233.779 333.825, 234.460 333, 233.687 333 C 233.515 333, 232.052 334.462, 230.437 336.250 M 126 482.500 L 126 487 256 487 L 386 487 385.825 482.250 L 385.651 477.500 385.268 481.750 L 384.885 486 264.443 486 C 156.475 486, 144 485.840, 144 484.455 C 144 483.605, 145.105 481.805, 146.455 480.455 L 148.909 478 137.455 478 L 126 478 126 482.500" stroke="none" fill="#d63030" fill-rule="evenodd"/><path d="M 82.420 97.886 C 76.768 101.332, 75.496 105.694, 75.534 121.500 C 75.572 137.376, 77.455 146.891, 83.594 162.234 C 88.796 175.236, 93.490 182.594, 101.950 191.007 C 122.674 211.615, 151.089 212.133, 161.453 192.091 C 162.776 189.533, 162.723 189.414, 160.166 189.228 C 155.376 188.878, 139.753 180.313, 133.275 174.485 C 118.100 160.833, 105.931 134.262, 102.744 107.815 L 101.576 98.131 97.345 97.065 C 91.078 95.487, 85.885 95.773, 82.420 97.886" stroke="none" fill="#f77026" fill-rule="evenodd"/><path d="M 57.643 26.068 C 51.304 27.879, 48 33.296, 48 41.878 C 48 47.144, 47.687 48.101, 45.365 49.927 C 42.304 52.335, 39.509 52.506, 36 50.500 C 32.616 48.566, 25.426 48.635, 22.040 50.636 C 15.891 54.268, 13.603 64.261, 17.654 69.788 C 22.177 75.958, 31.073 77.540, 36.923 73.215 C 44.141 67.878, 46.925 69.235, 56.646 82.825 L 64.474 93.769 68.487 89.510 C 70.694 87.167, 73.984 84.497, 75.798 83.575 L 79.096 81.899 75.670 77.199 C 61.670 57.999, 61.505 57.315, 69.131 50.154 C 73.716 45.849, 74.306 44.814, 74.686 40.418 C 75.532 30.630, 66.954 23.407, 57.643 26.068 M 102 101.802 C 102 106.615, 104.768 120.931, 107.381 129.629 C 113.119 148.736, 122.267 164.582, 133.275 174.485 C 139.501 180.086, 155.023 188.644, 159.989 189.214 C 162.042 189.450, 162.689 188.887, 163.683 186 C 165.323 181.233, 165.279 167.637, 163.602 161.339 C 160.418 149.380, 154.701 139.911, 143.583 128.183 C 131.563 115.502, 113.632 102.453, 104.250 99.559 C 102.270 98.948, 102 99.217, 102 101.802 M 285.332 335.250 C 284.222 336.488, 281.261 341.775, 278.751 347 C 272.630 359.742, 263.832 371.845, 252.952 382.492 C 248.006 387.332, 243.793 391.114, 243.590 390.896 C 243.387 390.678, 243.706 387.862, 244.298 384.639 C 245.884 376.003, 243.942 363.602, 240.504 360.416 C 238.314 358.386, 237.998 357.322, 238.194 352.638 C 238.435 346.861, 237.049 344, 234.007 344 C 232.774 344, 231.119 346.558, 228.391 352.680 C 224.172 362.148, 219.543 370, 218.180 370 C 217.264 370, 212.197 359.490, 207.076 346.970 C 203.481 338.181, 201.450 335, 199.431 335 C 196.624 335, 183.983 357.184, 178.984 370.881 C 175.762 379.709, 175.885 380.974, 180.922 390.847 L 183.041 395 238.071 395 L 293.102 395 294.475 391.714 C 301.159 375.718, 302.036 351.894, 296.356 340.648 C 294.170 336.319, 290.977 333, 289 333 C 288.092 333, 286.441 334.012, 285.332 335.250 M 324.146 381.517 C 320.101 384.522, 313.186 388.785, 308.780 390.990 L 300.768 395 313.256 395 L 325.743 395 330.070 391.160 C 334.141 387.547, 334.400 387.001, 334.449 381.937 C 334.487 377.902, 334.124 376.491, 333 376.303 C 332.175 376.166, 328.191 378.512, 324.146 381.517" stroke="none" fill="#ff883e" fill-rule="evenodd"/><path d="M 272.378 94.367 C 266.584 96.259, 263.525 98.709, 259.471 104.706 C 257.535 107.569, 255.426 110.237, 254.784 110.634 C 254.141 111.031, 249.959 111.646, 245.489 112.001 C 235.867 112.765, 230.221 115.192, 224.205 121.149 C 221.886 123.444, 218.757 127.837, 217.249 130.911 C 214.957 135.588, 214.509 137.806, 214.509 144.500 C 214.509 151.212, 214.955 153.408, 217.275 158.142 C 220.504 164.728, 227.208 171.285, 233.824 174.329 C 237.437 175.992, 240.432 176.483, 247 176.490 C 254.367 176.499, 256.233 176.124, 261 173.681 C 271.050 168.529, 276.975 160.680, 279.042 149.780 C 280.326 143.005, 281.902 140.788, 286.610 139.130 C 294.964 136.186, 301.206 128.821, 302.569 120.298 C 303.286 115.812, 302.420 109, 301.133 109 C 300.705 109, 290.938 116.989, 279.428 126.753 C 267.918 136.517, 257.202 145.517, 255.615 146.753 C 252.042 149.536, 247.638 149.638, 245 147 C 242.751 144.751, 242.366 139.375, 244.282 136.973 C 244.952 136.132, 255.786 126.720, 268.357 116.057 L 291.214 96.668 288.570 95.282 C 284.699 93.255, 277.101 92.825, 272.378 94.367" stroke="none" fill="#6e9213" fill-rule="evenodd"/><path d="M 294.500 305.914 C 286.399 323.128, 271.863 342.317, 257 355.420 C 250.145 361.463, 246.590 363.440, 244.216 362.529 C 243.161 362.125, 242.972 362.447, 243.506 363.739 C 244.834 366.946, 245.310 384.673, 244.157 387.980 L 243.055 391.140 248.096 386.920 C 259.693 377.210, 271.113 361.941, 279.352 345.130 C 284.831 333.950, 287.097 331.812, 291.392 333.769 C 294.787 335.316, 298.757 344.133, 300.163 353.253 C 301.836 364.096, 299.527 380.040, 294.317 393.617 C 293.214 396.491, 300.188 394.997, 308.912 390.491 C 317.663 385.972, 325.259 381.084, 318.300 384.452 C 314.234 386.419, 312.025 386.406, 309.159 384.399 C 305.045 381.517, 304.845 378.939, 308.014 369.624 C 314.753 349.809, 313.642 327.399, 304.972 308.278 C 303.392 304.793, 301.289 300.922, 300.299 299.678 L 298.500 297.414 294.500 305.914 M 193.110 307.151 C 188.662 315.032, 186.525 317, 182.415 317 C 179.161 317, 178.731 317.379, 176.464 322.250 C 173.496 328.624, 173.467 329.208, 176 331.500 C 178.512 333.774, 178.501 335.762, 175.902 348.343 C 173.834 358.352, 173.626 372.969, 175.508 376.014 C 175.950 376.728, 177.535 373.833, 179.428 368.857 C 181.176 364.261, 185.768 354.875, 189.633 348 C 199.533 330.386, 201.088 330.582, 208.971 350.428 C 210.642 354.634, 213.390 360.811, 215.078 364.155 L 218.147 370.235 219.824 367.974 C 220.746 366.730, 223.975 360.715, 227 354.606 C 233.029 342.431, 235.187 340.816, 237.889 346.454 L 239.305 349.408 240.248 346.954 C 241.676 343.237, 242.410 328.555, 241.269 326.517 C 240.396 324.956, 239.900 325.285, 237.196 329.215 C 230.963 338.274, 223.945 342.155, 219.219 339.157 C 218.515 338.710, 213.040 330.108, 207.052 320.041 L 196.165 301.739 193.110 307.151 M 340.225 369.004 C 334.427 374.354, 334.034 374.982, 335.065 377.242 C 335.861 378.989, 335.880 380.774, 335.134 383.478 L 334.088 387.266 336.639 384.883 C 341.119 380.699, 347.884 366.929, 346.839 364.122 C 346.652 363.622, 343.676 365.819, 340.225 369.004" stroke="none" fill="#fb5858" fill-rule="evenodd"/><path d="M 57.643 26.068 C 51.304 27.879, 48 33.296, 48 41.878 C 48 47.144, 47.687 48.101, 45.365 49.927 C 42.304 52.335, 39.509 52.506, 36 50.500 C 32.616 48.566, 25.426 48.635, 22.040 50.636 C 15.891 54.268, 13.603 64.261, 17.654 69.788 C 22.177 75.958, 31.073 77.540, 36.923 73.215 C 44.141 67.878, 46.925 69.235, 56.646 82.825 L 64.474 93.769 68.487 89.510 C 70.694 87.167, 73.984 84.497, 75.798 83.575 L 79.096 81.899 75.670 77.199 C 61.670 57.999, 61.505 57.315, 69.131 50.154 C 73.716 45.849, 74.306 44.814, 74.686 40.418 C 75.532 30.630, 66.954 23.407, 57.643 26.068 M 102 101.802 C 102 106.615, 104.768 120.931, 107.381 129.629 C 113.119 148.736, 122.267 164.582, 133.275 174.485 C 139.501 180.086, 155.023 188.644, 159.989 189.214 C 162.042 189.450, 162.689 188.887, 163.683 186 C 165.323 181.233, 165.279 167.637, 163.602 161.339 C 160.418 149.380, 154.701 139.911, 143.583 128.183 C 131.563 115.502, 113.632 102.453, 104.250 99.559 C 102.270 98.948, 102 99.217, 102 101.802 M 285.332 335.250 C 284.222 336.488, 281.261 341.775, 278.751 347 C 272.630 359.742, 263.832 371.845, 252.952 382.492 C 248.006 387.332, 243.793 391.114, 243.590 390.896 C 243.387 390.678, 243.706 387.862, 244.298 384.639 C 245.884 376.003, 243.942 363.602, 240.504 360.416 C 238.314 358.386, 237.998 357.322, 238.194 352.638 C 238.435 346.861, 237.049 344, 234.007 344 C 232.774 344, 231.119 346.558, 228.391 352.680 C 224.172 362.148, 219.543 370, 218.180 370 C 217.264 370, 212.197 359.490, 207.076 346.970 C 203.481 338.181, 201.450 335, 199.431 335 C 196.624 335, 183.983 357.184, 178.984 370.881 C 175.762 379.709, 175.885 380.974, 180.922 390.847 L 183.041 395 238.071 395 L 293.102 395 294.475 391.714 C 301.159 375.718, 302.036 351.894, 296.356 340.648 C 294.170 336.319, 290.977 333, 289 333 C 288.092 333, 286.441 334.012, 285.332 335.250 M 324.146 381.517 C 320.101 384.522, 313.186 388.785, 308.780 390.990 L 300.768 395 313.256 395 L 325.743 395 330.070 391.160 C 334.141 387.547, 334.400 387.001, 334.449 381.937 C 334.487 377.902, 334.124 376.491, 333 376.303 C 332.175 376.166, 328.191 378.512, 324.146 381.517" stroke="none" fill="#ff883e" fill-rule="evenodd"/><path d="M 51.005 11.684 C 44.993 13.885, 35.826 23.126, 34.212 28.611 L 33.003 32.722 27.138 33.254 C 7.443 35.040, -4.772 53.638, 1.554 72.205 C 4.565 81.040, 13.457 88.761, 23.104 90.915 C 27.424 91.880, 35.881 91.189, 40.112 89.526 C 41.327 89.048, 43.853 91.870, 50.362 100.978 L 59 113.065 59.003 121.282 C 59.011 142.246, 67.712 171.101, 79.313 188.640 C 81.910 192.566, 87.299 198.866, 91.289 202.640 C 116.356 226.348, 147.720 229.422, 167.064 210.067 C 181.820 195.303, 185.180 170.631, 175.634 147.138 C 165.493 122.180, 132.382 92.211, 104.841 83.063 L 97.096 80.490 90.048 70.568 C 86.172 65.110, 83 60.271, 83 59.814 C 83 59.357, 84.325 57.154, 85.944 54.918 C 91.429 47.347, 92.212 35.354, 87.799 26.523 C 85.148 21.219, 79.464 15.332, 74.500 12.750 C 69.110 9.946, 57.225 9.407, 51.005 11.684 M 179.920 19.063 C 170.573 20.537, 162.195 26.550, 157.519 35.143 C 155.274 39.267, 154.553 42.075, 154.225 47.962 C 153.684 57.656, 156.277 65.044, 162.448 71.393 C 168.857 77.988, 173.978 80.262, 183.612 80.791 C 190.823 81.187, 192.391 80.937, 197.738 78.537 C 214.350 71.082, 221.198 51.646, 212.893 35.524 C 206.689 23.478, 193.543 16.916, 179.920 19.063 M 53.898 27.270 C 49.035 30.518, 46.763 35.401, 47.463 41.097 C 47.919 44.803, 47.624 46.209, 45.942 48.347 C 43.517 51.430, 40.760 51.688, 34.977 49.374 C 28.639 46.838, 23.331 47.991, 18.753 52.899 C 15.496 56.391, 15 57.556, 15.004 61.711 C 15.010 69.573, 19.103 74.422, 27.422 76.422 C 29.665 76.961, 31.828 76.371, 36.723 73.887 C 45.594 69.384, 46.636 69.904, 56.433 83.709 L 64.366 94.887 69.466 89.580 C 72.270 86.661, 75.563 83.956, 76.783 83.569 C 78.002 83.182, 79 82.386, 79 81.801 C 79 81.215, 75.850 76.324, 72 70.931 C 63.309 58.758, 63.044 56.663, 69.462 50.823 C 74.460 46.273, 76.503 41.497, 75.573 36.536 C 73.745 26.792, 62.079 21.805, 53.898 27.270 M 178.966 34.820 C 166.663 40.273, 165.627 57.488, 177.211 63.998 C 180.340 65.757, 182.302 66.140, 186.434 65.797 C 195.699 65.029, 201.231 59.073, 201.231 49.866 C 201.231 40.571, 194.675 33.945, 185.602 34.070 C 182.796 34.109, 179.810 34.446, 178.966 34.820 M 328.216 65.674 C 327.510 65.957, 321.725 70.581, 315.361 75.949 L 303.791 85.709 296.765 82.105 C 290.062 78.665, 289.276 78.500, 279.620 78.500 C 270.389 78.500, 268.929 78.771, 262.997 81.582 C 257.043 84.404, 247 92.877, 247 95.079 C 247 95.586, 245.537 96.005, 243.750 96.012 C 234.803 96.045, 221.502 101.858, 214.436 108.825 C 203.841 119.270, 199.055 130.211, 199.021 144.068 C 198.986 158.492, 203.037 168.112, 213.644 178.788 C 236.125 201.417, 275.435 194.854, 289.978 166.043 C 291.551 162.927, 293.147 158.733, 293.524 156.725 C 294.103 153.637, 295.021 152.615, 299.468 150.105 C 305.865 146.495, 311.382 140.351, 314.827 133 C 318.211 125.781, 319.058 111.847, 316.529 105 C 315.615 102.525, 314.681 99.825, 314.453 99 C 314.189 98.044, 318.189 94.055, 325.483 88 C 337.188 78.283, 339.703 74.936, 338.599 70.538 C 337.677 66.866, 331.940 64.178, 328.216 65.674 M 269.290 95.086 C 265.391 97.016, 261.849 100.483, 256.282 107.817 C 254.228 110.523, 253.478 110.773, 246.143 111.198 C 233.064 111.955, 222.880 118.555, 216.898 130.151 C 213.546 136.649, 213.110 148.654, 215.952 156.188 C 218.787 163.705, 225.791 171.103, 233.341 174.558 C 251.899 183.048, 275.094 171.677, 279.043 152.155 C 280.835 143.296, 281.607 142.060, 286.755 139.805 C 294.006 136.630, 296.794 134.287, 300.022 128.660 C 302.471 124.389, 302.980 122.380, 302.975 117 C 302.972 113.425, 302.573 109.873, 302.088 109.107 C 301.410 108.038, 297.678 110.703, 285.983 120.607 C 249.408 151.584, 252.012 149.715, 247.709 148.080 C 244.473 146.849, 242.507 143.099, 243.346 139.756 C 243.729 138.232, 252.719 129.952, 268.106 116.952 L 292.264 96.541 288.382 94.797 C 282.976 92.368, 274.522 92.496, 269.290 95.086 M 83 96.689 C 80.638 97.911, 78.687 100.125, 77 103.500 C 74.700 108.101, 74.507 109.539, 74.587 121.500 C 74.656 131.937, 75.176 136.481, 77.224 144.552 C 82.562 165.591, 90.215 180.446, 101.411 191.500 C 130.533 220.255, 168.114 208.466, 165.772 171.311 C 164.712 154.512, 157.910 141.735, 141.083 124.936 C 119.018 102.907, 94.254 90.864, 83 96.689 M 31.282 187.110 C 25.175 189.457, 18.094 195.955, 14.905 202.137 C 13.300 205.249, 12.527 208.825, 12.209 214.612 C 11.811 221.856, 12.058 223.379, 14.517 228.859 C 17.310 235.083, 23.175 241.497, 28.636 244.301 C 34.154 247.135, 42.491 248.245, 48.750 246.979 C 69.368 242.811, 80.223 221.082, 71.023 202.395 C 63.842 187.808, 46.659 181.199, 31.282 187.110 M 34.922 202.274 C 29.074 206.215, 26.763 210.647, 27.212 217.065 C 27.875 226.558, 33.865 232.335, 43.078 232.368 C 53.811 232.407, 61.341 222.731, 58.586 212.442 C 57.206 207.285, 55.385 204.812, 51 202.140 C 46.216 199.225, 39.362 199.282, 34.922 202.274 M 218.774 226.429 C 123.400 245.408, 91.554 252.094, 90.050 253.455 C 87.164 256.067, 86.688 258.497, 88.411 261.829 C 89.994 264.889, 91.795 266, 95.175 266 C 96.281 266, 153.991 254.750, 223.420 241 C 292.850 227.250, 350.377 216, 351.260 216 C 353.286 216, 353.833 217.765, 355.014 228.120 C 357.562 250.463, 349.101 276.428, 333.615 293.782 C 327.616 300.505, 321.154 306.500, 320.571 305.883 C 320.371 305.672, 318.791 302.489, 317.059 298.808 C 313.101 290.396, 306.030 282.378, 301.457 281.116 C 293.513 278.922, 289.610 282.148, 281.915 297.268 C 276.263 308.371, 269.920 318.832, 265.262 324.730 C 264.293 325.957, 262.059 327.246, 260.298 327.596 C 257.378 328.175, 257.042 327.978, 256.483 325.365 C 254.633 316.717, 251.344 308.230, 248.883 305.750 C 246.690 303.540, 245.246 303, 241.531 303 C 235.933 303, 233.803 304.837, 229.038 313.777 C 227.214 317.200, 225.447 319.985, 225.111 319.966 C 224.775 319.947, 219.838 312.122, 214.141 302.577 C 207.338 291.179, 202.945 284.840, 201.344 284.111 C 197.909 282.546, 192.829 282.731, 190.283 284.514 C 186.670 287.045, 176 305.630, 176 309.392 C 176 313.455, 178.595 316, 182.740 316 C 186.252 316, 189.022 313.224, 192.999 305.716 C 194.373 303.122, 195.812 301.112, 196.197 301.250 C 196.581 301.387, 201.661 309.488, 207.484 319.251 C 213.361 329.103, 219.222 337.755, 220.656 338.694 C 223.104 340.298, 223.428 340.285, 226.825 338.444 C 230.087 336.675, 237.313 328.837, 239.833 324.333 C 241.369 321.589, 242.039 323.074, 242.671 330.632 C 243.087 335.595, 242.755 339.303, 241.475 344 C 238.547 354.744, 238.483 357.440, 241.096 359.874 C 242.350 361.043, 244.394 362, 245.637 362 C 250.383 362, 271.114 341.731, 280.985 327.441 C 284.001 323.073, 289.204 314.213, 292.547 307.751 L 298.625 296.002 300.680 298.782 C 303.927 303.173, 306.548 308.831, 309.582 318 C 312.182 325.854, 312.399 327.716, 312.448 342.506 C 312.499 358.137, 312.420 358.753, 309.072 368.780 L 305.644 379.047 307.671 381.773 C 308.786 383.273, 310.857 384.639, 312.273 384.809 C 317.063 385.384, 330.569 377.066, 341.672 366.705 L 348.321 360.500 347.613 364.974 C 346.110 374.468, 336.884 387.897, 327.321 394.507 C 325.422 395.820, 316 395.980, 253.821 395.757 L 182.500 395.500 179.769 390.403 C 173.687 379.056, 171.900 361.009, 175.420 346.500 C 177.658 337.276, 177.673 334.401, 175.497 331.997 C 173.149 329.402, 167.882 329.367, 165.562 331.931 C 164.601 332.994, 163.042 336.923, 162.098 340.663 L 160.382 347.463 136.441 352.281 C 113.248 356.950, 112.078 357.085, 99 356.626 C 83.921 356.096, 76.518 354.368, 64.125 348.482 C 44.500 339.162, 28.627 322.538, 20.127 302.403 C 16.498 293.805, 14.301 284.299, 15.634 282.966 C 16.166 282.434, 28.054 279.711, 42.051 276.916 C 56.048 274.121, 68.458 271.222, 69.628 270.474 C 74.131 267.596, 72.844 258.749, 67.737 257.473 C 64.560 256.679, 14.365 266.701, 9.236 269.153 C 3.512 271.890, -0 277.834, 0 284.786 C 0 295.999, 8.831 316.945, 19.617 331.318 C 32.965 349.102, 51.217 361.493, 74.600 368.643 C 82.873 371.173, 84.768 371.366, 101.500 371.373 C 118.700 371.380, 120.350 371.202, 138.622 367.356 L 157.743 363.331 158.917 371.723 C 159.948 379.090, 162.194 387.780, 164.482 393.250 C 165.172 394.899, 162.973 395, 126.288 395 C 81.763 395, 79.697 395.272, 73.678 401.935 C 71.728 404.093, 69.656 407.578, 69.072 409.679 C 68.460 411.883, 68.009 423.683, 68.006 437.554 C 68 461.296, 68.033 461.673, 70.533 466.691 C 72.114 469.862, 74.618 472.851, 77.193 474.637 C 81.215 477.427, 81.698 477.508, 96.160 477.822 L 111 478.144 111 487.437 C 111 495.325, 111.314 497.129, 113.073 499.365 L 115.145 502 256 502 L 396.855 502 398.927 499.365 C 400.686 497.129, 401 495.325, 401 487.437 L 401 478.144 415.840 477.822 C 430.302 477.508, 430.785 477.427, 434.807 474.637 C 437.382 472.851, 439.886 469.862, 441.467 466.691 C 443.967 461.673, 444 461.296, 443.994 437.554 C 443.991 423.187, 443.546 411.889, 442.890 409.500 C 441.377 403.993, 434.631 397.648, 428.701 396.155 C 425.643 395.385, 411.764 395, 387.057 395 C 366.676 395, 350 394.745, 350 394.433 C 350 394.122, 351.075 392.434, 352.388 390.683 C 359.041 381.816, 363 369.915, 363 358.786 C 363 346.323, 359.790 341.182, 351.419 340.238 L 346.756 339.712 337.443 349.587 C 332.320 355.018, 327.952 359.246, 327.736 358.981 C 327.520 358.716, 327.649 354.675, 328.023 350 C 328.637 342.315, 327.949 330.629, 326.488 323.957 C 326.009 321.765, 326.808 320.711, 332.268 316.336 C 338.865 311.050, 347.774 301.366, 352.348 294.511 L 355.010 290.522 423.953 276.851 C 481.844 265.373, 493.718 262.734, 498.022 260.392 C 517.505 249.788, 516.545 221.263, 496.373 211.394 C 489.022 207.798, 483.957 207.894, 462.548 212.034 C 448.537 214.744, 445.179 215.731, 443.187 217.723 C 441.270 219.639, 440.902 220.784, 441.391 223.316 C 442.053 226.744, 445.209 230.002, 447.861 229.996 C 448.762 229.994, 457.304 228.449, 466.843 226.563 C 476.382 224.677, 484.932 223.371, 485.843 223.661 C 491.405 225.429, 493.208 226.600, 495.114 229.684 C 498.133 234.569, 497.323 241.139, 493.192 245.270 C 490.263 248.199, 488.649 248.599, 443.333 257.645 C 380.039 270.279, 363.988 273.321, 363.450 272.784 C 363.200 272.533, 363.862 269.808, 364.921 266.729 C 365.981 263.649, 367.417 257.744, 368.112 253.607 L 369.376 246.085 373.938 245.125 C 376.447 244.597, 388.093 242.257, 399.817 239.924 C 422.786 235.354, 425.445 234.238, 426.239 228.828 C 426.800 224.999, 423.477 221, 419.733 221 C 418.436 221, 407.306 223.025, 395 225.500 C 382.694 227.975, 372.100 230, 371.458 230 C 370.737 230, 370.070 227.374, 369.714 223.134 C 368.462 208.196, 361.980 200.848, 350.282 201.105 C 347.652 201.163, 288.473 212.559, 218.774 226.429 M 85.571 412.571 C 84.235 413.908, 84 417.542, 84 436.871 C 84 453.216, 84.337 459.937, 85.200 460.800 C 86.114 461.714, 105.689 462, 167.200 462 L 248 462 248 436.500 L 248 411 167.571 411 C 95.788 411, 86.974 411.169, 85.571 412.571 M 264 436.500 L 264 462 344.800 462 C 406.311 462, 425.886 461.714, 426.800 460.800 C 427.663 459.937, 428 453.216, 428 436.871 C 428 417.542, 427.765 413.908, 426.429 412.571 C 425.026 411.169, 416.212 411, 344.429 411 L 264 411 264 436.500 M 126 482.500 L 126 487 256 487 L 386 487 386 482.500 L 386 478 256 478 L 126 478 126 482.500" stroke="none" fill="#000000" fill-rule="evenodd"/><path d="" stroke="none" fill="#ea3e3e" fill-rule="evenodd"/><path d="M 27.250 48.689 C 28.212 48.941, 29.788 48.941, 30.750 48.689 C 31.712 48.438, 30.925 48.232, 29 48.232 C 27.075 48.232, 26.288 48.438, 27.250 48.689 M 223 241.624 C 152.875 255.552, 94.496 266.728, 93.269 266.459 C 92.043 266.191, 90.072 264.664, 88.891 263.066 C 87.710 261.469, 86.238 260.323, 85.622 260.522 C 85.005 260.720, 81.912 261.390, 78.750 262.012 C 74.233 262.900, 73 263.538, 73 264.989 C 73 268.130, 71.865 270.019, 69.129 271.431 C 67.683 272.177, 55.475 274.921, 42 277.529 C 26.808 280.469, 17.057 282.817, 16.335 283.710 C 13.664 287.011, 22.624 309.522, 31.050 320.682 C 48.402 343.665, 73.634 356.308, 102 356.232 C 111.571 356.207, 117.340 355.435, 136.387 351.631 C 148.975 349.117, 159.373 346.934, 159.495 346.780 C 159.617 346.626, 160.687 343.258, 161.873 339.296 C 164.160 331.657, 166.478 329.026, 170.973 328.967 C 173.086 328.939, 173.949 327.940, 176.242 322.865 L 178.984 316.796 176.992 314.263 C 175.896 312.870, 175.020 310.553, 175.044 309.115 C 175.068 307.677, 178.109 301.550, 181.803 295.500 C 187.885 285.539, 188.915 284.363, 192.718 283.045 C 200.875 280.219, 203.826 283.157, 218.683 308.885 C 221.882 314.426, 224.782 318.968, 225.126 318.980 C 225.471 318.991, 227.408 315.848, 229.432 311.997 C 234.575 302.210, 240.501 299.569, 247.602 303.899 C 250.948 305.939, 255.392 315.347, 256.611 322.968 C 257.189 326.581, 257.551 327, 260.099 327 C 262.507 327, 263.781 325.814, 268.424 319.250 C 271.439 314.988, 276.666 306.005, 280.039 299.288 C 287.167 285.098, 291.796 280, 297.553 280 C 304.724 280, 311.286 285.970, 317.210 297.883 C 319.019 301.522, 320.601 304.676, 320.725 304.891 C 321.275 305.851, 330.274 297.439, 334.853 291.685 C 349.161 273.703, 356.092 252.069, 354.640 229.916 C 353.952 219.426, 353.495 217.391, 351.673 216.728 C 351.028 216.493, 293.125 227.696, 223 241.624" stroke="none" fill="#736e6e" fill-rule="evenodd"/><path d="M 51.005 11.684 C 44.993 13.885, 35.826 23.126, 34.212 28.611 L 33.003 32.722 27.138 33.254 C 7.443 35.040, -4.772 53.638, 1.554 72.205 C 4.565 81.040, 13.457 88.761, 23.104 90.915 C 27.424 91.880, 35.881 91.189, 40.112 89.526 C 41.327 89.048, 43.853 91.870, 50.362 100.978 L 59 113.065 59.003 121.282 C 59.011 142.246, 67.712 171.101, 79.313 188.640 C 81.910 192.566, 87.299 198.866, 91.289 202.640 C 116.356 226.348, 147.720 229.422, 167.064 210.067 C 181.820 195.303, 185.180 170.631, 175.634 147.138 C 165.493 122.180, 132.382 92.211, 104.841 83.063 L 97.096 80.490 90.048 70.568 C 86.172 65.110, 83 60.271, 83 59.814 C 83 59.357, 84.325 57.154, 85.944 54.918 C 91.429 47.347, 92.212 35.354, 87.799 26.523 C 85.148 21.219, 79.464 15.332, 74.500 12.750 C 69.110 9.946, 57.225 9.407, 51.005 11.684 M 179.920 19.063 C 170.573 20.537, 162.195 26.550, 157.519 35.143 C 155.274 39.267, 154.553 42.075, 154.225 47.962 C 153.684 57.656, 156.277 65.044, 162.448 71.393 C 168.857 77.988, 173.978 80.262, 183.612 80.791 C 190.823 81.187, 192.391 80.937, 197.738 78.537 C 214.350 71.082, 221.198 51.646, 212.893 35.524 C 206.689 23.478, 193.543 16.916, 179.920 19.063 M 53.898 27.270 C 49.035 30.518, 46.763 35.401, 47.463 41.097 C 47.919 44.803, 47.624 46.209, 45.942 48.347 C 43.517 51.430, 40.760 51.688, 34.977 49.374 C 28.639 46.838, 23.331 47.991, 18.753 52.899 C 15.496 56.391, 15 57.556, 15.004 61.711 C 15.010 69.573, 19.103 74.422, 27.422 76.422 C 29.665 76.961, 31.828 76.371, 36.723 73.887 C 45.594 69.384, 46.636 69.904, 56.433 83.709 L 64.366 94.887 69.466 89.580 C 72.270 86.661, 75.563 83.956, 76.783 83.569 C 78.002 83.182, 79 82.386, 79 81.801 C 79 81.215, 75.850 76.324, 72 70.931 C 63.309 58.758, 63.044 56.663, 69.462 50.823 C 74.460 46.273, 76.503 41.497, 75.573 36.536 C 73.745 26.792, 62.079 21.805, 53.898 27.270 M 178.966 34.820 C 166.663 40.273, 165.627 57.488, 177.211 63.998 C 180.340 65.757, 182.302 66.140, 186.434 65.797 C 195.699 65.029, 201.231 59.073, 201.231 49.866 C 201.231 40.571, 194.675 33.945, 185.602 34.070 C 182.796 34.109, 179.810 34.446, 178.966 34.820 M 328.216 65.674 C 327.510 65.957, 321.725 70.581, 315.361 75.949 L 303.791 85.709 296.765 82.105 C 290.062 78.665, 289.276 78.500, 279.620 78.500 C 270.389 78.500, 268.929 78.771, 262.997 81.582 C 257.043 84.404, 247 92.877, 247 95.079 C 247 95.586, 245.537 96.005, 243.750 96.012 C 234.803 96.045, 221.502 101.858, 214.436 108.825 C 203.841 119.270, 199.055 130.211, 199.021 144.068 C 198.986 158.492, 203.037 168.112, 213.644 178.788 C 236.125 201.417, 275.435 194.854, 289.978 166.043 C 291.551 162.927, 293.147 158.733, 293.524 156.725 C 294.103 153.637, 295.021 152.615, 299.468 150.105 C 305.865 146.495, 311.382 140.351, 314.827 133 C 318.211 125.781, 319.058 111.847, 316.529 105 C 315.615 102.525, 314.681 99.825, 314.453 99 C 314.189 98.044, 318.189 94.055, 325.483 88 C 337.188 78.283, 339.703 74.936, 338.599 70.538 C 337.677 66.866, 331.940 64.178, 328.216 65.674 M 269.290 95.086 C 265.391 97.016, 261.849 100.483, 256.282 107.817 C 254.228 110.523, 253.478 110.773, 246.143 111.198 C 233.064 111.955, 222.880 118.555, 216.898 130.151 C 213.546 136.649, 213.110 148.654, 215.952 156.188 C 218.787 163.705, 225.791 171.103, 233.341 174.558 C 251.899 183.048, 275.094 171.677, 279.043 152.155 C 280.835 143.296, 281.607 142.060, 286.755 139.805 C 294.006 136.630, 296.794 134.287, 300.022 128.660 C 302.471 124.389, 302.980 122.380, 302.975 117 C 302.972 113.425, 302.573 109.873, 302.088 109.107 C 301.410 108.038, 297.678 110.703, 285.983 120.607 C 249.408 151.584, 252.012 149.715, 247.709 148.080 C 244.473 146.849, 242.507 143.099, 243.346 139.756 C 243.729 138.232, 252.719 129.952, 268.106 116.952 L 292.264 96.541 288.382 94.797 C 282.976 92.368, 274.522 92.496, 269.290 95.086 M 83 96.689 C 80.638 97.911, 78.687 100.125, 77 103.500 C 74.700 108.101, 74.507 109.539, 74.587 121.500 C 74.656 131.937, 75.176 136.481, 77.224 144.552 C 82.562 165.591, 90.215 180.446, 101.411 191.500 C 130.533 220.255, 168.114 208.466, 165.772 171.311 C 164.712 154.512, 157.910 141.735, 141.083 124.936 C 119.018 102.907, 94.254 90.864, 83 96.689 M 31.282 187.110 C 25.175 189.457, 18.094 195.955, 14.905 202.137 C 13.300 205.249, 12.527 208.825, 12.209 214.612 C 11.811 221.856, 12.058 223.379, 14.517 228.859 C 17.310 235.083, 23.175 241.497, 28.636 244.301 C 34.154 247.135, 42.491 248.245, 48.750 246.979 C 69.368 242.811, 80.223 221.082, 71.023 202.395 C 63.842 187.808, 46.659 181.199, 31.282 187.110 M 34.922 202.274 C 29.074 206.215, 26.763 210.647, 27.212 217.065 C 27.875 226.558, 33.865 232.335, 43.078 232.368 C 53.811 232.407, 61.341 222.731, 58.586 212.442 C 57.206 207.285, 55.385 204.812, 51 202.140 C 46.216 199.225, 39.362 199.282, 34.922 202.274 M 218.774 226.429 C 123.400 245.408, 91.554 252.094, 90.050 253.455 C 87.164 256.067, 86.688 258.497, 88.411 261.829 C 89.994 264.889, 91.795 266, 95.175 266 C 96.281 266, 153.991 254.750, 223.420 241 C 292.850 227.250, 350.377 216, 351.260 216 C 353.286 216, 353.833 217.765, 355.014 228.120 C 357.562 250.463, 349.101 276.428, 333.615 293.782 C 327.616 300.505, 321.154 306.500, 320.571 305.883 C 320.371 305.672, 318.791 302.489, 317.059 298.808 C 313.101 290.396, 306.030 282.378, 301.457 281.116 C 293.513 278.922, 289.610 282.148, 281.915 297.268 C 276.263 308.371, 269.920 318.832, 265.262 324.730 C 264.293 325.957, 262.059 327.246, 260.298 327.596 C 257.378 328.175, 257.042 327.978, 256.483 325.365 C 254.633 316.717, 251.344 308.230, 248.883 305.750 C 246.690 303.540, 245.246 303, 241.531 303 C 235.933 303, 233.803 304.837, 229.038 313.777 C 227.214 317.200, 225.447 319.985, 225.111 319.966 C 224.775 319.947, 219.838 312.122, 214.141 302.577 C 207.338 291.179, 202.945 284.840, 201.344 284.111 C 197.909 282.546, 192.829 282.731, 190.283 284.514 C 186.670 287.045, 176 305.630, 176 309.392 C 176 313.455, 178.595 316, 182.740 316 C 186.252 316, 189.022 313.224, 192.999 305.716 C 194.373 303.122, 195.812 301.112, 196.197 301.250 C 196.581 301.387, 201.661 309.488, 207.484 319.251 C 213.361 329.103, 219.222 337.755, 220.656 338.694 C 223.104 340.298, 223.428 340.285, 226.825 338.444 C 230.087 336.675, 237.313 328.837, 239.833 324.333 C 241.369 321.589, 242.039 323.074, 242.671 330.632 C 243.087 335.595, 242.755 339.303, 241.475 344 C 238.547 354.744, 238.483 357.440, 241.096 359.874 C 242.350 361.043, 244.394 362, 245.637 362 C 250.383 362, 271.114 341.731, 280.985 327.441 C 284.001 323.073, 289.204 314.213, 292.547 307.751 L 298.625 296.002 300.680 298.782 C 303.927 303.173, 306.548 308.831, 309.582 318 C 312.182 325.854, 312.399 327.716, 312.448 342.506 C 312.499 358.137, 312.420 358.753, 309.072 368.780 L 305.644 379.047 307.671 381.773 C 308.786 383.273, 310.857 384.639, 312.273 384.809 C 317.063 385.384, 330.569 377.066, 341.672 366.705 L 348.321 360.500 347.613 364.974 C 346.110 374.468, 336.884 387.897, 327.321 394.507 C 325.422 395.820, 316 395.980, 253.821 395.757 L 182.500 395.500 179.769 390.403 C 173.687 379.056, 171.900 361.009, 175.420 346.500 C 177.658 337.276, 177.673 334.401, 175.497 331.997 C 173.149 329.402, 167.882 329.367, 165.562 331.931 C 164.601 332.994, 163.042 336.923, 162.098 340.663 L 160.382 347.463 136.441 352.281 C 113.248 356.950, 112.078 357.085, 99 356.626 C 83.921 356.096, 76.518 354.368, 64.125 348.482 C 44.500 339.162, 28.627 322.538, 20.127 302.403 C 16.498 293.805, 14.301 284.299, 15.634 282.966 C 16.166 282.434, 28.054 279.711, 42.051 276.916 C 56.048 274.121, 68.458 271.222, 69.628 270.474 C 74.131 267.596, 72.844 258.749, 67.737 257.473 C 64.560 256.679, 14.365 266.701, 9.236 269.153 C 3.512 271.890, -0 277.834, 0 284.786 C 0 295.999, 8.831 316.945, 19.617 331.318 C 32.965 349.102, 51.217 361.493, 74.600 368.643 C 82.873 371.173, 84.768 371.366, 101.500 371.373 C 118.700 371.380, 120.350 371.202, 138.622 367.356 L 157.743 363.331 158.917 371.723 C 159.948 379.090, 162.194 387.780, 164.482 393.250 C 165.172 394.899, 162.973 395, 126.288 395 C 81.763 395, 79.697 395.272, 73.678 401.935 C 71.728 404.093, 69.656 407.578, 69.072 409.679 C 68.460 411.883, 68.009 423.683, 68.006 437.554 C 68 461.296, 68.033 461.673, 70.533 466.691 C 72.114 469.862, 74.618 472.851, 77.193 474.637 C 81.215 477.427, 81.698 477.508, 96.160 477.822 L 111 478.144 111 487.437 C 111 495.325, 111.314 497.129, 113.073 499.365 L 115.145 502 256 502 L 396.855 502 398.927 499.365 C 400.686 497.129, 401 495.325, 401 487.437 L 401 478.144 415.840 477.822 C 430.302 477.508, 430.785 477.427, 434.807 474.637 C 437.382 472.851, 439.886 469.862, 441.467 466.691 C 443.967 461.673, 444 461.296, 443.994 437.554 C 443.991 423.187, 443.546 411.889, 442.890 409.500 C 441.377 403.993, 434.631 397.648, 428.701 396.155 C 425.643 395.385, 411.764 395, 387.057 395 C 366.676 395, 350 394.745, 350 394.433 C 350 394.122, 351.075 392.434, 352.388 390.683 C 359.041 381.816, 363 369.915, 363 358.786 C 363 346.323, 359.790 341.182, 351.419 340.238 L 346.756 339.712 337.443 349.587 C 332.320 355.018, 327.952 359.246, 327.736 358.981 C 327.520 358.716, 327.649 354.675, 328.023 350 C 328.637 342.315, 327.949 330.629, 326.488 323.957 C 326.009 321.765, 326.808 320.711, 332.268 316.336 C 338.865 311.050, 347.774 301.366, 352.348 294.511 L 355.010 290.522 423.953 276.851 C 481.844 265.373, 493.718 262.734, 498.022 260.392 C 517.505 249.788, 516.545 221.263, 496.373 211.394 C 489.022 207.798, 483.957 207.894, 462.548 212.034 C 448.537 214.744, 445.179 215.731, 443.187 217.723 C 441.270 219.639, 440.902 220.784, 441.391 223.316 C 442.053 226.744, 445.209 230.002, 447.861 229.996 C 448.762 229.994, 457.304 228.449, 466.843 226.563 C 476.382 224.677, 484.932 223.371, 485.843 223.661 C 491.405 225.429, 493.208 226.600, 495.114 229.684 C 498.133 234.569, 497.323 241.139, 493.192 245.270 C 490.263 248.199, 488.649 248.599, 443.333 257.645 C 380.039 270.279, 363.988 273.321, 363.450 272.784 C 363.200 272.533, 363.862 269.808, 364.921 266.729 C 365.981 263.649, 367.417 257.744, 368.112 253.607 L 369.376 246.085 373.938 245.125 C 376.447 244.597, 388.093 242.257, 399.817 239.924 C 422.786 235.354, 425.445 234.238, 426.239 228.828 C 426.800 224.999, 423.477 221, 419.733 221 C 418.436 221, 407.306 223.025, 395 225.500 C 382.694 227.975, 372.100 230, 371.458 230 C 370.737 230, 370.070 227.374, 369.714 223.134 C 368.462 208.196, 361.980 200.848, 350.282 201.105 C 347.652 201.163, 288.473 212.559, 218.774 226.429 M 85.571 412.571 C 84.235 413.908, 84 417.542, 84 436.871 C 84 453.216, 84.337 459.937, 85.200 460.800 C 86.114 461.714, 105.689 462, 167.200 462 L 248 462 248 436.500 L 248 411 167.571 411 C 95.788 411, 86.974 411.169, 85.571 412.571 M 264 436.500 L 264 462 344.800 462 C 406.311 462, 425.886 461.714, 426.800 460.800 C 427.663 459.937, 428 453.216, 428 436.871 C 428 417.542, 427.765 413.908, 426.429 412.571 C 425.026 411.169, 416.212 411, 344.429 411 L 264 411 264 436.500 M 126 482.500 L 126 487 256 487 L 386 487 386 482.500 L 386 478 256 478 L 126 478 126 482.500" stroke="none" fill="#000000" fill-rule="evenodd"/><path d="M 140.958 125.250 C 145.102 129.665, 146 130.459, 146 129.708 C 146 129.548, 143.863 127.410, 141.250 124.958 L 136.500 120.500 140.958 125.250" stroke="none" fill="#f06f49" fill-rule="evenodd"/><path d="M 87.750 95.706 C 88.987 95.944, 91.013 95.944, 92.250 95.706 C 93.487 95.467, 92.475 95.272, 90 95.272 C 87.525 95.272, 86.513 95.467, 87.750 95.706 M 74.232 114 C 74.232 115.925, 74.438 116.713, 74.689 115.750 C 74.941 114.787, 74.941 113.213, 74.689 112.250 C 74.438 111.287, 74.232 112.075, 74.232 114 M 247.250 111.689 C 248.213 111.941, 249.787 111.941, 250.750 111.689 C 251.713 111.438, 250.925 111.232, 249 111.232 C 247.075 111.232, 246.287 111.438, 247.250 111.689 M 221 165.313 C 221 165.485, 222.463 166.948, 224.250 168.563 L 227.500 171.500 224.563 168.250 C 221.825 165.221, 221 164.540, 221 165.313 M 134.250 207.689 C 135.213 207.941, 136.787 207.941, 137.750 207.689 C 138.713 207.438, 137.925 207.232, 136 207.232 C 134.075 207.232, 133.287 207.438, 134.250 207.689 M 355.252 236.500 C 355.263 238.700, 355.468 239.482, 355.707 238.238 C 355.946 236.994, 355.937 235.194, 355.687 234.238 C 355.437 233.282, 355.241 234.300, 355.252 236.500 M 345.695 274.513 C 344.781 276.431, 344.239 278, 344.490 278 C 345.175 278, 348.210 271.877, 347.753 271.420 C 347.536 271.203, 346.610 272.594, 345.695 274.513 M 308 285.500 C 309.866 287.425, 311.617 289, 311.892 289 C 312.167 289, 310.866 287.425, 309 285.500 C 307.134 283.575, 305.383 282, 305.108 282 C 304.833 282, 306.134 283.575, 308 285.500 M 282.951 293.097 C 281.801 295.350, 281.032 297.365, 281.242 297.575 C 281.451 297.785, 282.602 295.941, 283.798 293.478 C 286.524 287.869, 285.787 287.537, 282.951 293.097 M 317.071 298.500 C 317.071 299.050, 317.714 300.625, 318.500 302 C 319.286 303.375, 319.929 304.050, 319.929 303.500 C 319.929 302.950, 319.286 301.375, 318.500 300 C 317.714 298.625, 317.071 297.950, 317.071 298.500 M 239.762 302.707 C 241.006 302.946, 242.806 302.937, 243.762 302.687 C 244.718 302.437, 243.700 302.241, 241.500 302.252 C 239.300 302.263, 238.518 302.468, 239.762 302.707 M 275.500 308 C 274.647 309.650, 274.174 311, 274.449 311 C 274.724 311, 275.647 309.650, 276.500 308 C 277.353 306.350, 277.826 305, 277.551 305 C 277.276 305, 276.353 306.350, 275.500 308 M 175.232 309 C 175.232 310.925, 175.438 311.712, 175.689 310.750 C 175.941 309.788, 175.941 308.212, 175.689 307.250 C 175.438 306.288, 175.232 307.075, 175.232 309 M 32 323.313 C 32 323.485, 33.462 324.948, 35.250 326.563 L 38.500 329.500 35.563 326.250 C 32.825 323.221, 32 322.540, 32 323.313 M 242.272 332 C 242.272 334.475, 242.467 335.488, 242.706 334.250 C 242.944 333.012, 242.944 330.988, 242.706 329.750 C 242.467 328.512, 242.272 329.525, 242.272 332 M 263.469 348.250 L 257.500 354.500 263.750 348.531 C 269.556 342.987, 270.458 342, 269.719 342 C 269.564 342, 266.751 344.813, 263.469 348.250 M 160 345.260 C 160 346.136, 159.213 347.059, 158.250 347.311 C 156.610 347.739, 156.612 347.775, 158.281 347.884 C 160.089 348.002, 161.765 345.431, 160.624 344.290 C 160.281 343.947, 160 344.384, 160 345.260 M 92.762 356.707 C 94.006 356.946, 95.806 356.937, 96.762 356.687 C 97.718 356.437, 96.700 356.241, 94.500 356.252 C 92.300 356.263, 91.518 356.468, 92.762 356.707 M 107.264 356.718 C 108.784 356.947, 111.034 356.941, 112.264 356.704 C 113.494 356.467, 112.250 356.279, 109.500 356.286 C 106.750 356.294, 105.744 356.488, 107.264 356.718 M 173.272 363 C 173.272 365.475, 173.467 366.488, 173.706 365.250 C 173.944 364.012, 173.944 361.988, 173.706 360.750 C 173.467 359.512, 173.272 360.525, 173.272 363 M 343.453 365.250 L 339.500 369.500 343.750 365.547 C 347.702 361.871, 348.460 361, 347.703 361 C 347.540 361, 345.627 362.913, 343.453 365.250 M 254.500 395 L 182.500 395.520 254.191 395.760 C 301.167 395.917, 326.095 395.655, 326.500 395 C 326.840 394.450, 326.979 394.108, 326.809 394.240 C 326.639 394.372, 294.100 394.714, 254.500 395" stroke="none" fill="#211f1e" fill-rule="evenodd"/></svg>